PathFileType	4	(X/Y/Z)	Patient4_TMGait_0pt2_01_left_18.trc.trc
DataRate	CameraRate	NumFrames	NumMarkers	Units	OrigDataRate	OrigDataStartFrame	OrigNumFrames
43.343653250774	43.343653250774	4	33	mm	43.343653250774	1	       141
Frame#	Time	Sacral			L.Shoulder			Chest			R.Shoulder			Neck			R.ASIS			L.ASIS			R.Thigh.Superior			R.Thigh.Lateral			R.Thigh.Inferior			R.Patella			L.Thigh.Superior			L.Thigh.Lateral			L.Thigh.Inferior			L.Patella			L.Shank.Superior			L.Shank.Lateral			L.Shank.Inferior			R.Shank.Superior			R.Shank.Lateral			R.Shank.Inferior			R.Heel			R.Midfoot.Superior			R.Midfoot.Lateral			R.Toe			L.Heel			L.Midfoot.Lateral			L.Midfoot.Superior			L.Toe			L.Elbow			L.Wrist			R.Elbow			R.Wrist			
		X1	Y1	Z1	X2	Y2	Z2	X3	Y3	Z3	X4	Y4	Z4	X5	Y5	Z5	X6	Y6	Z6	X7	Y7	Z7	X8	Y8	Z8	X9	Y9	Z9	X10	Y10	Z10	X11	Y11	Z11	X12	Y12	Z12	X13	Y13	Z13	X14	Y14	Z14	X15	Y15	Z15	X16	Y16	Z16	X17	Y17	Z17	X18	Y18	Z18	X19	Y19	Z19	X20	Y20	Z20	X21	Y21	Z21	X22	Y22	Z22	X23	Y23	Z23	X24	Y24	Z24	X25	Y25	Z25	X26	Y26	Z26	X27	Y27	Z27	X28	Y28	Z28	X29	Y29	Z29	X30	Y30	Z30	X31	Y31	Z31	X32	Y32	Z32	X33	Y33	Z33	

1	41.430000000000	674.989253100713	993.585845019932	573.941439753486	860.318841020780	1414.295778794426	388.384183315932	949.797854344383	1355.418541744959	560.226032361107	852.681286644615	1431.080912133681	725.709454285489	826.798772473107	1483.999679409412	542.354886530462	900.975599620112	932.603336764810	702.687377063000	901.289269524351	950.126548837557	427.984419050825	953.240918111518	733.860575613291	655.534501433884	878.277569293299	613.796385378134	704.506586254720	954.196801587494	571.089210790386	619.127141530306	957.148687978558	476.801535590707	617.866568482966	961.935507679891	744.699256656332	457.635510948691	896.403783545482	624.307980478264	378.448727171708	983.953700577747	546.382090802357	445.542905463790	980.732494024479	457.442368618387	436.035690001251	907.734211410880	402.980853653470	417.580386829023	769.585699114191	379.000156932778	351.287742936838	737.452405827116	249.144363985567	395.271062642429	914.148471000219	388.711039885597	619.204997481898	832.005558513450	291.176355484781	678.295890883787	854.438907669362	197.324757297962	607.598754887701	698.415165774047	43.496724148238	577.660927620930	871.637263344873	96.742749661241	611.151927930962	782.822630686636	37.071424653338	650.624247846416	990.901764913693	43.027587531971	637.079205739011	539.039201616092	205.587066032197	408.496818585975	599.636066444331	155.927104115036	332.440965882434	701.810996890623	149.400688262559	363.931108088981	768.341741626857	30.138985521639	338.230624698563	884.333989080190	1053.249471006574	289.626147005562	1040.906199569645	842.622645365338	288.867928111991	826.927156719217	1077.989048600577	845.181685885895	956.678331120782	847.813983952327	847.566725757467	
2	41.453071428571	673.645009005269	991.023497114824	575.741141594284	858.121924645739	1411.532966443692	388.931749855322	947.820683868153	1353.323955046594	560.939326420661	850.771219452898	1429.376271830776	726.366872846945	824.579245053966	1481.708442318034	542.772087447868	899.926172600091	930.660747228631	704.725811589400	899.502894033185	948.280678216966	430.259140079964	953.631791338416	732.524463574925	656.476582707111	879.254097045787	611.689310098435	704.936447141976	955.392341799727	569.736098463927	618.990572265742	958.697530777910	474.775170673045	617.122967150046	963.027951491696	744.406480774824	460.756070840629	900.556515980238	623.298082074671	381.309136918611	987.890364061282	546.327118919635	450.314429327005	985.431179006034	456.688641097911	440.132270625664	911.478376210894	402.512683965449	420.078544424387	772.893901945609	382.218496269479	352.980841379605	738.006214713725	252.445784564663	395.177555077287	914.464862621293	386.872767653478	618.439943270887	831.254652494183	290.363942726778	677.989939760451	851.725721421763	196.401439332369	607.193426852517	693.852603177390	43.666602552188	577.761841565716	867.098322923400	96.598919165090	610.986401394311	778.289772217828	37.107806045076	650.688499827366	986.379944436685	42.691330294829	637.098552392023	538.227756861296	211.726395815647	407.178558527962	598.667116171519	163.360975984951	330.254645257726	700.736162032865	154.849180630759	362.091469295159	766.139997459130	35.343110474732	333.528597377807	871.075942114509	1049.672155412613	293.382769511175	1002.235833868271	828.171312408011	293.138215489771	839.304501616101	1077.574670235724	849.027083299025	987.490514616917	863.053783481416	848.684455394911	
3	41.476142857143	672.232458874197	988.611623450982	577.596031227757	855.835751454141	1408.881787950111	389.456022554620	945.877514555155	1351.300154485783	561.559096050020	849.029554976277	1427.792154086012	726.984999291765	822.413311645542	1479.516340382754	543.171859637128	898.796270148713	928.768856513316	706.695035167137	897.580207952703	946.555650659659	432.462624836679	953.776107932015	731.172466581909	657.391257849488	879.921846237163	609.647465234278	705.333448555496	956.269452357812	568.388336997915	618.856848949783	959.892923770450	472.786565009939	616.409438399942	963.984131137574	744.277833660527	463.805483942791	904.580348736137	622.512645892251	384.001900319960	991.708647844210	546.483984204243	454.815572308469	990.101974717917	456.226723294887	444.000159732496	915.432474294080	402.176661661791	422.304374689739	776.463284254338	384.927008018051	354.331064879506	739.411339766548	255.006006012568	394.732091601890	914.447870563218	385.082018049525	617.696658352336	830.209291853619	289.578190547242	677.695849757591	848.771922378425	195.510858858954	606.791114404072	689.091333196236	43.835559672099	577.852180719405	862.362718729634	96.460777876140	610.836946192251	773.555649433944	37.147936329658	650.741956683498	981.655225431206	42.359381258917	637.123050711371	538.398771599726	216.073294844701	405.401895878469	598.918772631390	169.381714584788	327.624438029236	700.939382631119	159.425302404894	359.867630820359	765.866353850818	40.069348624753	328.426981800965	857.076964006862	1046.481212871675	296.895815032497	962.705583926970	814.714011286489	297.664379898163	852.715497449533	1077.754560107210	853.025708510473	1019.454310694710	880.242142240597	849.459543728305	
4	41.499214285714	670.769324596931	986.537790947737	579.462653302273	853.487181072940	1406.522397598035	389.929195827918	944.056616701811	1349.474951511044	562.001497023181	847.634922796615	1426.460052930046	727.517605101239	820.409982433984	1477.575916014014	543.532806058184	897.606641763531	927.040056795763	708.467858870108	895.527723832822	945.110470551791	434.444844315014	953.557814705017	729.867944358391	658.201119794163	880.114377172834	607.797285389222	705.670359077887	956.630709745027	567.114645650880	618.719986654637	960.502519466704	470.946982512278	615.760880083091	964.675952526870	744.420635219158	466.589780728805	908.207362609280	622.102259934312	386.319073753247	995.168351171913	546.968663577018	458.713711275613	994.527210835728	456.247786250564	447.345490367400	919.536484630234	402.086747592796	424.035993126373	780.325819103916	386.779068979519	355.145684403552	742.119455959697	256.425789884235	393.833726456523	913.928838112212	383.445723114660	617.013933711810	828.764131877215	288.870585396296	677.429336192255	845.581667096712	194.708631458539	606.412225991656	684.238049672292	43.999431031157	577.924952989889	857.532948299671	96.335092875716	610.711510932682	768.722191329006	37.191246187489	650.779258290172	976.829507300311	42.045762683000	637.153661981023	540.217516478854	217.662132625049	403.127322433701	601.126787177890	173.115065114917	324.546723909729	703.153102544261	162.578415802686	357.240465306419	768.540398575570	43.968961156808	323.036522920082	842.601685964502	1043.995214394474	299.946231896799	923.639501554231	803.191280288854	302.357504298471	867.066625969137	1078.837337489273	857.051814551554	1051.677308289599	899.537504178647	849.682330188826	
